<svg xmlns="http://www.w3.org/2000/svg" version="1.1" xmlns:xlink="http://www.w3.org/1999/xlink" xmlns:svgjs="http://svgjs.com/svgjs" viewBox="0 0 140 140" width="140" height="140"><g transform="matrix(14,0,0,14,0,0)"><path d="M8.5,0h-7A1.5,1.5,0,0,0,0,1.5v7A1.5,1.5,0,0,0,1.5,10h7A1.5,1.5,0,0,0,10,8.5v-7A1.5,1.5,0,0,0,8.5,0Zm-6,1.9H5a.625.625,0,0,1,0,1.25H2.5a.625.625,0,1,1,0-1.25ZM8.54,4.815l-1.75,3a.624.624,0,0,1-.924.178L4.087,6.609l-1.112,1.3a.626.626,0,0,1-.95-.814l1.5-1.75a.626.626,0,0,1,.859-.086L6.07,6.568,7.46,4.185a.625.625,0,0,1,1.08.63Z" fill="#000000" stroke="none" stroke-linecap="round" stroke-linejoin="round" stroke-width="0"></path></g></svg>