<svg xmlns="http://www.w3.org/2000/svg" version="1.1" xmlns:xlink="http://www.w3.org/1999/xlink" xmlns:svgjs="http://svgjs.com/svgjs" viewBox="0 0 140 140" width="140" height="140"><g transform="matrix(5.833333333333333,0,0,5.833333333333333,0,0)"><path d="M2.939,24H21.061A2.942,2.942,0,0,0,24,21.061V2.939A2.942,2.942,0,0,0,21.061,0H2.939A2.942,2.942,0,0,0,0,2.939V21.061A2.942,2.942,0,0,0,2.939,24Zm18.122-1.959H2.939a.98.98,0,0,1-.98-.98V3a1,1,0,0,1,1-1H21.041a1,1,0,0,1,1,1V21.061A.98.98,0,0,1,21.061,22.041Z" fill="#000000" stroke="none" stroke-linecap="round" stroke-linejoin="round" stroke-width="0"></path><path d="M18.836,15.592l-2.064,1.832a.252.252,0,0,1-.315.014l-1.366-1.012a1.878,1.878,0,0,0-1.135-.339,1.769,1.769,0,0,0-1.119.431L10.32,18.752a1,1,0,0,0,1.328,1.5l2.233-1.982a.25.25,0,0,1,.314-.014l1.366,1.012a1.875,1.875,0,0,0,1.135.34,1.77,1.77,0,0,0,1.119-.432l2.349-2.084a1,1,0,1,0-1.328-1.5Z" fill="#000000" stroke="none" stroke-linecap="round" stroke-linejoin="round" stroke-width="0"></path><path d="M14.331,10.123a.208.208,0,0,0-.155-.087L10.11,9.722a.21.21,0,0,0-.222.257l.884,3.981a.214.214,0,0,0,.108.141.211.211,0,0,0,.177.009A5.507,5.507,0,0,0,14.365,10.3.208.208,0,0,0,14.331,10.123Z" fill="#000000" stroke="none" stroke-linecap="round" stroke-linejoin="round" stroke-width="0"></path><path d="M7.209,3.809a.212.212,0,0,0-.116.3L9.359,8.3a.209.209,0,0,0,.169.109l4.744.367a.211.211,0,0,0,.227-.229,5.5,5.5,0,0,0-7.29-4.733Z" fill="#000000" stroke="none" stroke-linecap="round" stroke-linejoin="round" stroke-width="0"></path><path d="M5.836,4.608a.21.21,0,0,0-.173.039A5.5,5.5,0,0,0,9.02,14.5c.107,0,.213,0,.319-.009a.208.208,0,0,0,.156-.084.214.214,0,0,0,.038-.173L8.426,9.253a.227.227,0,0,0-.02-.055L5.978,4.714A.211.211,0,0,0,5.836,4.608Z" fill="#000000" stroke="none" stroke-linecap="round" stroke-linejoin="round" stroke-width="0"></path><path d="M17.500 5.500 A1.000 1.000 0 1 0 19.500 5.500 A1.000 1.000 0 1 0 17.500 5.500 Z" fill="#000000" stroke="none" stroke-linecap="round" stroke-linejoin="round" stroke-width="0"></path><path d="M17.500 8.500 A1.000 1.000 0 1 0 19.500 8.500 A1.000 1.000 0 1 0 17.500 8.500 Z" fill="#000000" stroke="none" stroke-linecap="round" stroke-linejoin="round" stroke-width="0"></path><path d="M17.500 11.500 A1.000 1.000 0 1 0 19.500 11.500 A1.000 1.000 0 1 0 17.500 11.500 Z" fill="#000000" stroke="none" stroke-linecap="round" stroke-linejoin="round" stroke-width="0"></path></g></svg>