<svg xmlns="http://www.w3.org/2000/svg" version="1.1" xmlns:xlink="http://www.w3.org/1999/xlink" xmlns:svgjs="http://svgjs.com/svgjs" viewBox="0 0 140 140" width="140" height="140"><g transform="matrix(5.833333333333333,0,0,5.833333333333333,0,0)"><path d="M12,3.348a12.013,12.013,0,0,0-12,12v2.391a2.916,2.916,0,0,0,2.913,2.913H21.087A2.916,2.916,0,0,0,24,17.739V15.348A12.013,12.013,0,0,0,12,3.348Zm9.087,15.3H2.913A.914.914,0,0,1,2,17.739V16.4H4.5a.75.75,0,0,0,0-1.5H2.01a9.922,9.922,0,0,1,.841-3.589L4.88,12.485a.75.75,0,0,0,.75-1.3l-2.07-1.2A10.052,10.052,0,0,1,6.037,7.325l1.13,1.957a.762.762,0,0,0,1.025.275.75.75,0,0,0,.274-1.025L7.305,6.521A9.911,9.911,0,0,1,11.25,5.376V7.652a.75.75,0,1,0,1.5,0V5.376a10.006,10.006,0,0,1,7.69,4.615l-2.07,1.2a.75.75,0,1,0,.75,1.3l2.029-1.172A9.922,9.922,0,0,1,21.99,14.9H19.5a.75.75,0,1,0,0,1.5H22v1.337A.914.914,0,0,1,21.087,18.652Z" fill="#000000" stroke="none" stroke-linecap="round" stroke-linejoin="round" stroke-width="0"></path><path d="M16.565,8.125a.749.749,0,0,0-1.037.221l-3,4.619a2.254,2.254,0,1,0,1.257.818l3-4.62A.751.751,0,0,0,16.565,8.125Z" fill="#000000" stroke="none" stroke-linecap="round" stroke-linejoin="round" stroke-width="0"></path></g></svg>