<svg xmlns="http://www.w3.org/2000/svg" version="1.1" xmlns:xlink="http://www.w3.org/1999/xlink" xmlns:svgjs="http://svgjs.com/svgjs" viewBox="0 0 140 140" width="140" height="140"><g transform="matrix(5.833333333333333,0,0,5.833333333333333,0,0)"><path d="M23.5,0h-1a.5.5,0,0,0-.431.247l-4.16,7.072a.5.5,0,0,0,.077.607l3.921,3.921a.5.5,0,0,0,.666.036l1.239-.992A.5.5,0,0,0,24,10.5V.5A.5.5,0,0,0,23.5,0Z" fill="#000000" stroke="none" stroke-linecap="round" stroke-linejoin="round" stroke-width="0"></path><path d="M16.868,8.929a.5.5,0,0,0-.491-.127l-2.9.827a2.484,2.484,0,0,0-1.717,1.717L9.488,19.312a.069.069,0,0,0,.116.068l5.63-5.631A.75.75,0,1,1,16.3,14.81l-5.632,5.632a.062.062,0,0,0-.01.077.064.064,0,0,0,.072.028l7.965-2.276a2.488,2.488,0,0,0,1.72-1.726l.778-2.945a.5.5,0,0,0-.13-.481Z" fill="#000000" stroke="none" stroke-linecap="round" stroke-linejoin="round" stroke-width="0"></path><path d="M8.3,21.283A3.464,3.464,0,0,1,6,22a3.175,3.175,0,0,1-2.644-1.045c-.636-.965-.441-2.714.564-5.059,2.017-4.709,4.134-8.436,2.8-11.62C5.969,2.5,4.264,1.156,1.351.065a1,1,0,1,0-.7,1.871C2.978,2.81,4.36,3.828,4.872,5.05c.955,2.277-.9,5.646-2.791,10.059-1.3,3.036-1.434,5.373-.4,6.947A5.057,5.057,0,0,0,6,24,5.3,5.3,0,0,0,9.7,22.707a.991.991,0,0,0,.006-1.395A1.009,1.009,0,0,0,8.3,21.283Z" fill="#000000" stroke="none" stroke-linecap="round" stroke-linejoin="round" stroke-width="0"></path></g></svg>