<svg xmlns="http://www.w3.org/2000/svg" version="1.1" xmlns:xlink="http://www.w3.org/1999/xlink" xmlns:svgjs="http://svgjs.com/svgjs" viewBox="0 0 140 140" width="140" height="140"><g transform="matrix(5.833333333333333,0,0,5.833333333333333,0,0)"><path d="M15.115,6.651a.251.251,0,0,0-.295-.058,6.487,6.487,0,0,1-5.64,0,.251.251,0,0,0-.295.058l-.511.569a8.525,8.525,0,0,0-1.189,9.674l3.481,6.552a1.52,1.52,0,0,0,.134.215.25.25,0,0,0,.45-.15V14.88a.5.5,0,0,0-.25-.433,2,2,0,1,1,2,0,.5.5,0,0,0-.25.433v8.632a.25.25,0,0,0,.45.15,1.44,1.44,0,0,0,.133-.213l3.482-6.555A8.525,8.525,0,0,0,15.626,7.22Z" fill="#000000" stroke="none" stroke-linecap="round" stroke-linejoin="round" stroke-width="0"></path><path d="M17,.738a.5.5,0,0,0-.5-.5h-9a.5.5,0,0,0-.5.5,5,5,0,0,0,10,0Z" fill="#000000" stroke="none" stroke-linecap="round" stroke-linejoin="round" stroke-width="0"></path></g></svg>