<svg xmlns="http://www.w3.org/2000/svg" version="1.1" xmlns:xlink="http://www.w3.org/1999/xlink" xmlns:svgjs="http://svgjs.com/svgjs" viewBox="0 0 140 140" width="140" height="140"><g transform="matrix(14,0,0,14,0,0)"><path d="M5,0a5,5,0,1,0,5,5A5.006,5.006,0,0,0,5,0ZM5,2A1.5,1.5,0,1,1,3.5,3.5,1.5,1.5,0,0,1,5,2ZM7.581,8.047a3.971,3.971,0,0,1-5.164,0A.252.252,0,0,1,2.39,7.69a3.452,3.452,0,0,1,5.217,0,.252.252,0,0,1,.061.183A.248.248,0,0,1,7.581,8.047Z" fill="#000000" stroke="none" stroke-linecap="round" stroke-linejoin="round" stroke-width="0"></path></g></svg>