<svg xmlns="http://www.w3.org/2000/svg" version="1.1" xmlns:xlink="http://www.w3.org/1999/xlink" xmlns:svgjs="http://svgjs.com/svgjs" viewBox="0 0 140 140" width="140" height="140"><g transform="matrix(10,0,0,10,0,0)"><path d="M13.838,3.938a3.984,3.984,0,0,0-2.852-2.8A4.247,4.247,0,0,0,7,2.573a4.245,4.245,0,0,0-3.986-1.44A3.982,3.982,0,0,0,.162,3.938a3.826,3.826,0,0,0,.982,3.833l5.518,5.047a.5.5,0,0,0,.675,0l5.535-5.063A3.819,3.819,0,0,0,13.838,3.938Z" fill="#000000" stroke="none" stroke-linecap="round" stroke-linejoin="round" stroke-width="0"></path></g></svg>