<svg xmlns="http://www.w3.org/2000/svg" version="1.1" xmlns:xlink="http://www.w3.org/1999/xlink" xmlns:svgjs="http://svgjs.com/svgjs" viewBox="0 0 140 140" width="140" height="140"><g transform="matrix(5.833333333333333,0,0,5.833333333333333,0,0)"><path d="M6.5,7.5a2,2,0,0,1,2,2v3.749a.25.25,0,0,0,.25.25h.375a2.375,2.375,0,0,1,1.837,3.88l-1.017,1.27a.25.25,0,0,0,.016.331l1.321,1.36a1,1,0,0,0,1.434,0l9.436-9.714a6.16,6.16,0,0,0,1.18-7.187A6.338,6.338,0,0,0,13.262,1.811l-1.1,1a.25.25,0,0,1-.337,0l-1.08-.984A6.265,6.265,0,0,0,5.274.087,6.206,6.206,0,0,0,1.661,10.438l.008.008.632.65a.249.249,0,0,0,.191.076.252.252,0,0,0,.183-.094L4.938,8.252A2,2,0,0,1,6.5,7.5Z" fill="#000000" stroke="none" stroke-linecap="round" stroke-linejoin="round" stroke-width="0"></path><path d="M2.75,18a.25.25,0,0,1,.25.25V23.5a.5.5,0,0,0,.89.313l5.9-7.37A.875.875,0,0,0,9.124,15H7.249a.25.25,0,0,1-.25-.25V9.5a.5.5,0,0,0-.89-.313l-5.9,7.37A.875.875,0,0,0,.875,18Z" fill="#000000" stroke="none" stroke-linecap="round" stroke-linejoin="round" stroke-width="0"></path></g></svg>