<svg xmlns="http://www.w3.org/2000/svg" version="1.1" xmlns:xlink="http://www.w3.org/1999/xlink" xmlns:svgjs="http://svgjs.com/svgjs" viewBox="0 0 140 140" width="140" height="140"><g transform="matrix(5.833333333333333,0,0,5.833333333333333,0,0)"><path d="M21,3.5H3a3,3,0,0,0-3,3v11a3,3,0,0,0,3,3H21a3,3,0,0,0,3-3V6.5A3,3,0,0,0,21,3.5ZM3,5.5H21a1,1,0,0,1,1,1v1a.5.5,0,0,1-.5.5H2.5A.5.5,0,0,1,2,7.5v-1A1,1,0,0,1,3,5.5Zm18,13H3a1,1,0,0,1-1-1v-6a.5.5,0,0,1,.5-.5h19a.5.5,0,0,1,.5.5v6A1,1,0,0,1,21,18.5Z" fill="#000000" stroke="none" stroke-linecap="round" stroke-linejoin="round" stroke-width="0"></path><path d="M8,14.5H5a1,1,0,0,0,0,2H8a1,1,0,0,0,0-2Z" fill="#000000" stroke="none" stroke-linecap="round" stroke-linejoin="round" stroke-width="0"></path></g></svg>