<svg xmlns="http://www.w3.org/2000/svg" version="1.1" xmlns:xlink="http://www.w3.org/1999/xlink" xmlns:svgjs="http://svgjs.com/svgjs" viewBox="0 0 140 140" width="140" height="140"><g transform="matrix(5.833333333333333,0,0,5.833333333333333,0,0)"><path d="M.5,18a2,2,0,0,0,2,2h19a2,2,0,0,0,2-2V9.5a.25.25,0,0,0-.25-.25H.75A.25.25,0,0,0,.5,9.5ZM17,15.75h3a.75.75,0,0,1,0,1.5H17a.75.75,0,0,1,0-1.5Zm-12.5-4h8a.75.75,0,0,1,0,1.5h-8a.75.75,0,0,1,0-1.5Zm0,4h3a.75.75,0,0,1,0,1.5h-3a.75.75,0,0,1,0-1.5Z" fill="#000000" stroke="none" stroke-linecap="round" stroke-linejoin="round" stroke-width="0"></path><path d="M23.5,6a2,2,0,0,0-2-2H2.5a2,2,0,0,0-2,2V7.5a.25.25,0,0,0,.25.25h22.5a.25.25,0,0,0,.25-.25Z" fill="#000000" stroke="none" stroke-linecap="round" stroke-linejoin="round" stroke-width="0"></path></g></svg>