<svg xmlns="http://www.w3.org/2000/svg" version="1.1" xmlns:xlink="http://www.w3.org/1999/xlink" xmlns:svgjs="http://svgjs.com/svgjs" viewBox="0 0 140 140" width="140" height="140"><g transform="matrix(5.833333333333333,0,0,5.833333333333333,0,0)"><path d="M13.3,12.115a.5.5,0,0,1,.707.707L7.258,19.573A.25.25,0,0,0,7.435,20h3.236a2.484,2.484,0,0,0,1.768-.732l6.835-6.835A16.578,16.578,0,0,0,23.98,2.81,2.481,2.481,0,0,0,23.267.732,2.509,2.509,0,0,0,21.19.019a16.539,16.539,0,0,0-5.968,1.956.254.254,0,0,0-.11.123l-2.881,7a.25.25,0,0,1-.468-.017l-1.01-3.027a.248.248,0,0,0-.179-.165.252.252,0,0,0-.235.067L4.732,11.56A2.487,2.487,0,0,0,4,13.328v5.154a.249.249,0,0,1-.073.177L.293,22.293a1,1,0,0,0,1.414,1.414Z" fill="#000000" stroke="none" stroke-linecap="round" stroke-linejoin="round" stroke-width="0"></path></g></svg>