<svg xmlns="http://www.w3.org/2000/svg" version="1.1" xmlns:xlink="http://www.w3.org/1999/xlink" xmlns:svgjs="http://svgjs.com/svgjs" viewBox="0 0 140 140" width="140" height="140"><g transform="matrix(14,0,0,14,0,0)"><path d="M9.78,9.78a.749.749,0,0,0,0-1.06l-1.9-1.9a.251.251,0,0,1-.034-.31A4.254,4.254,0,1,0,6.511,7.847a.25.25,0,0,1,.31.035l1.9,1.9a.748.748,0,0,0,1.06,0ZM1.5,4.25A2.75,2.75,0,1,1,4.25,7,2.752,2.752,0,0,1,1.5,4.25Z" fill="#000000" stroke="none" stroke-linecap="round" stroke-linejoin="round" stroke-width="0"></path></g></svg>