<svg xmlns="http://www.w3.org/2000/svg" version="1.1" xmlns:xlink="http://www.w3.org/1999/xlink" xmlns:svgjs="http://svgjs.com/svgjs" viewBox="0 0 140 140" width="140" height="140"><g transform="matrix(5.833333333333333,0,0,5.833333333333333,0,0)"><path d="M.793.786A1,1,0,0,0,.5,1.493V12.508a1,1,0,0,0,1,1h8a1,1,0,0,0,1-1v-11a1,1,0,0,0-1-1L1.5.493A1,1,0,0,0,.793.786Z" fill="#000000" stroke="none" stroke-linecap="round" stroke-linejoin="round" stroke-width="0"></path><path d="M22.5.493l-8,.014a1,1,0,0,0-1,1v5a1,1,0,0,0,1,1h8a1,1,0,0,0,1-1V1.493a1,1,0,0,0-1-1Z" fill="#000000" stroke="none" stroke-linecap="round" stroke-linejoin="round" stroke-width="0"></path><path d="M10.207,23.214a1,1,0,0,0,.293-.707v-5a1,1,0,0,0-1-1h-8a1,1,0,0,0-1,1v4.985a1,1,0,0,0,1,1l8,.014A1,1,0,0,0,10.207,23.214Z" fill="#000000" stroke="none" stroke-linecap="round" stroke-linejoin="round" stroke-width="0"></path><path d="M22.5,10.508h-8a1,1,0,0,0-1,1v11a1,1,0,0,0,1,1l8-.014a1,1,0,0,0,1-1V11.508A1,1,0,0,0,22.5,10.508Z" fill="#000000" stroke="none" stroke-linecap="round" stroke-linejoin="round" stroke-width="0"></path></g></svg>